<svg width="26" height="25" viewBox="0 0 26 25" fill="none" xmlns="http://www.w3.org/2000/svg">
<path d="M17.7676 0.129258C18.7384 0.0957395 19.7058 0.260382 20.6108 0.613138C21.5159 0.965894 22.3396 1.49936 23.0316 2.181C23.6987 2.873 24.2203 3.69171 24.5656 4.58874C24.9109 5.48577 25.0729 6.44291 25.0419 7.4036V17.7245C25.0419 19.8798 24.3373 21.7347 22.9902 23.0403C21.5611 24.3597 19.67 25.0633 17.7261 24.9988H7.48815C5.5605 25.0585 3.68726 24.3547 2.2759 23.0403C1.57629 22.3396 1.02846 21.5023 0.666562 20.5806C0.304658 19.6589 0.136428 18.6726 0.17235 17.683V7.4036C0.17235 3.03071 3.0738 0.129258 7.4467 0.129258H17.7676ZM17.8194 2.44006H7.48815C5.98561 2.44006 4.69032 2.88563 3.83025 3.73534C3.37067 4.22485 3.01451 4.80199 2.78305 5.43226C2.5516 6.06254 2.4496 6.73301 2.48315 7.4036V17.683C2.48315 19.2374 2.92873 20.4809 3.83025 21.3927C4.83572 22.282 6.14709 22.7464 7.48815 22.688H17.7261C19.0672 22.7464 20.3785 22.282 21.384 21.3927C21.8667 20.9151 22.245 20.3425 22.4947 19.711C22.7444 19.0795 22.8602 18.4031 22.8347 17.7245V7.4036C22.8682 6.06963 22.3856 4.77419 21.4876 3.78716C20.9981 3.32758 20.421 2.97142 19.7907 2.73996C19.1604 2.50851 18.49 2.4065 17.8194 2.44006ZM12.6071 6.09795C16.12 6.09795 19.0318 8.9994 19.0318 12.5226C19.0318 14.2265 18.3549 15.8606 17.15 17.0655C15.9452 18.2703 14.3111 18.9472 12.6071 18.9472C10.9032 18.9472 9.26908 18.2703 8.06423 17.0655C6.85937 15.8606 6.1825 14.2265 6.18249 12.5226C6.18249 10.8187 6.85937 9.18454 8.06423 7.97969C9.26908 6.77483 10.9032 6.09795 12.6071 6.09795ZM12.6071 8.39839C11.5178 8.40383 10.4745 8.839 9.70423 9.60932C8.93391 10.3796 8.49874 11.4228 8.49329 12.5122C8.49874 13.6016 8.93391 14.6448 9.70423 15.4151C10.4745 16.1854 11.5178 16.6206 12.6071 16.6261C13.6965 16.6206 14.7397 16.1854 15.51 15.4151C16.2804 14.6448 16.7155 13.6016 16.721 12.5122C16.7155 11.4228 16.2804 10.3796 15.51 9.60932C14.7397 8.839 13.6965 8.40383 12.6071 8.39839ZM19.2805 4.49179C19.6652 4.49179 20.0342 4.64464 20.3063 4.9167C20.5783 5.18877 20.7312 5.55776 20.7312 5.94252C20.7312 6.32727 20.5783 6.69627 20.3063 6.96834C20.0342 7.2404 19.6652 7.39324 19.2805 7.39324C18.8957 7.39324 18.5267 7.2404 18.2546 6.96834C17.9826 6.69627 17.8297 6.32727 17.8297 5.94252C17.8297 5.55776 17.9826 5.18877 18.2546 4.9167C18.5267 4.64464 18.8957 4.49179 19.2805 4.49179Z" fill="white"/>
</svg>
