<svg width="44" height="44" viewBox="0 0 44 44" fill="none" xmlns="http://www.w3.org/2000/svg">
<path d="M31.1268 -0.00247575C32.8443 -0.0617781 34.5559 0.22951 36.1572 0.853614C37.7584 1.47772 39.2157 2.42155 40.4401 3.62751C41.6203 4.85181 42.5431 6.30029 43.154 7.88733C43.7649 9.47438 44.0515 11.1678 43.9967 12.8675V31.1274C43.9967 34.9407 42.75 38.2223 40.3667 40.5323C37.8384 42.8666 34.4926 44.1113 31.0534 43.9973H12.9402C9.52977 44.1029 6.21557 42.8577 3.71857 40.5323C2.4808 39.2926 1.51158 37.8112 0.871295 36.1805C0.231008 34.5498 -0.0666296 32.8048 -0.00307466 31.054V12.8675C-0.00307466 5.13083 5.13023 -0.00247575 12.8669 -0.00247575H31.1268ZM31.2184 4.08584H12.9402C10.2819 4.08584 7.99022 4.87417 6.46856 6.37749C5.65547 7.24353 5.02534 8.26462 4.61584 9.37971C4.20634 10.4948 4.02588 11.681 4.08524 12.8675V31.054C4.08524 33.804 4.87357 36.004 6.46856 37.6173C8.24747 39.1907 10.5676 40.0123 12.9402 39.909H31.0534C33.4261 40.0123 35.7462 39.1907 37.5251 37.6173C38.3791 36.7724 39.0483 35.7592 39.4901 34.642C39.932 33.5247 40.1368 32.3279 40.0917 31.1274V12.8675C40.1509 10.5074 39.2971 8.21544 37.7084 6.46916C36.8424 5.65607 35.8213 5.02594 34.7062 4.61644C33.5911 4.20694 32.4049 4.02648 31.2184 4.08584ZM21.9968 10.5575C28.2118 10.5575 33.3634 15.6908 33.3634 21.9241C33.3634 24.9387 32.1659 27.8298 30.0342 29.9615C27.9026 32.0931 25.0114 33.2907 21.9968 33.2907C18.9822 33.2907 16.0911 32.0931 13.9594 29.9615C11.8278 27.8298 10.6302 24.9387 10.6302 21.9241C10.6302 18.9095 11.8278 16.0183 13.9594 13.8867C16.0911 11.755 18.9822 10.5575 21.9968 10.5575ZM21.9968 14.6274C20.0695 14.6371 18.2238 15.407 16.8609 16.7699C15.4981 18.1327 14.7282 19.9784 14.7185 21.9057C14.7282 23.8331 15.4981 25.6788 16.8609 27.0416C18.2238 28.4045 20.0695 29.1744 21.9968 29.184C23.9242 29.1744 25.7698 28.4045 27.1327 27.0416C28.4956 25.6788 29.2655 23.8331 29.2751 21.9057C29.2655 19.9784 28.4956 18.1327 27.1327 16.7699C25.7698 15.407 23.9242 14.6371 21.9968 14.6274ZM33.8034 7.71582C34.4841 7.71582 35.137 7.98623 35.6183 8.46757C36.0997 8.94891 36.3701 9.60175 36.3701 10.2825C36.3701 10.9632 36.0997 11.616 35.6183 12.0974C35.137 12.5787 34.4841 12.8491 33.8034 12.8491C33.1227 12.8491 32.4699 12.5787 31.9885 12.0974C31.5072 11.616 31.2368 10.9632 31.2368 10.2825C31.2368 9.60175 31.5072 8.94891 31.9885 8.46757C32.4699 7.98623 33.1227 7.71582 33.8034 7.71582Z" fill="black"/>
</svg>
